<mxfile host="app.diagrams.net" agent="Mozilla/5.0 (Windows NT 10.0; Win64; x64) AppleWebKit/537.36 (KHTML, like Gecko) Chrome/131.0.0.0 Safari/537.36" version="26.0.10">
  <diagram name="Page-1" id="zoXgV7O6m6qylsMxJGQO">
    <mxGraphModel grid="1" page="1" gridSize="10" guides="1" tooltips="1" connect="1" arrows="1" fold="1" pageScale="1" pageWidth="850" pageHeight="1100" math="0" shadow="0">
      <root>
        <mxCell id="0" />
        <mxCell id="1" parent="0" />
        <mxCell id="RnhcBNPgwDZzlxIwjb6s-64" style="edgeStyle=orthogonalEdgeStyle;rounded=0;orthogonalLoop=1;jettySize=auto;html=1;exitX=0.5;exitY=1;exitDx=0;exitDy=0;entryX=0.5;entryY=1;entryDx=0;entryDy=0;elbow=vertical;curved=1;" edge="1" parent="1">
          <mxGeometry relative="1" as="geometry">
            <mxPoint x="730" y="316.9999999999999" as="sourcePoint" />
            <Array as="points">
              <mxPoint x="750" y="317" />
              <mxPoint x="750" y="537" />
              <mxPoint x="170" y="537" />
            </Array>
          </mxGeometry>
        </mxCell>
        <mxCell id="RnhcBNPgwDZzlxIwjb6s-68" style="rounded=0;orthogonalLoop=1;jettySize=auto;html=1;exitX=0.5;exitY=1;exitDx=0;exitDy=0;entryX=0.5;entryY=0;entryDx=0;entryDy=0;startArrow=classic;startFill=1;" edge="1" parent="1" source="RnhcBNPgwDZzlxIwjb6s-72" target="RnhcBNPgwDZzlxIwjb6s-91">
          <mxGeometry relative="1" as="geometry" />
        </mxCell>
        <mxCell id="RnhcBNPgwDZzlxIwjb6s-69" style="rounded=0;orthogonalLoop=1;jettySize=auto;html=1;exitX=1;exitY=1;exitDx=0;exitDy=0;entryX=0;entryY=0;entryDx=0;entryDy=0;startArrow=classic;startFill=1;" edge="1" parent="1" source="RnhcBNPgwDZzlxIwjb6s-72" target="RnhcBNPgwDZzlxIwjb6s-86">
          <mxGeometry relative="1" as="geometry" />
        </mxCell>
        <mxCell id="RnhcBNPgwDZzlxIwjb6s-70" style="edgeStyle=entityRelationEdgeStyle;rounded=0;orthogonalLoop=1;jettySize=auto;html=1;exitX=1;exitY=0.5;exitDx=0;exitDy=0;entryX=0;entryY=0.5;entryDx=0;entryDy=0;startArrow=classic;startFill=1;" edge="1" parent="1" source="RnhcBNPgwDZzlxIwjb6s-72" target="RnhcBNPgwDZzlxIwjb6s-95">
          <mxGeometry relative="1" as="geometry" />
        </mxCell>
        <mxCell id="RnhcBNPgwDZzlxIwjb6s-72" value="Home/Dashboard" style="ellipse;whiteSpace=wrap;html=1;" vertex="1" parent="1">
          <mxGeometry x="120" y="630" width="120" height="80" as="geometry" />
        </mxCell>
        <mxCell id="RnhcBNPgwDZzlxIwjb6s-73" style="edgeStyle=entityRelationEdgeStyle;rounded=0;orthogonalLoop=1;jettySize=auto;html=1;exitX=1;exitY=0.5;exitDx=0;exitDy=0;entryX=0;entryY=0.5;entryDx=0;entryDy=0;startArrow=classic;startFill=1;" edge="1" parent="1" source="RnhcBNPgwDZzlxIwjb6s-77" target="RnhcBNPgwDZzlxIwjb6s-81">
          <mxGeometry relative="1" as="geometry" />
        </mxCell>
        <mxCell id="RnhcBNPgwDZzlxIwjb6s-101" style="edgeStyle=orthogonalEdgeStyle;rounded=0;orthogonalLoop=1;jettySize=auto;html=1;exitX=0.5;exitY=0;exitDx=0;exitDy=0;entryX=0.58;entryY=-0.003;entryDx=0;entryDy=0;endArrow=classic;endFill=1;startArrow=classic;startFill=1;entryPerimeter=0;" edge="1" parent="1" source="RnhcBNPgwDZzlxIwjb6s-77" target="RnhcBNPgwDZzlxIwjb6s-72">
          <mxGeometry relative="1" as="geometry" />
        </mxCell>
        <mxCell id="RnhcBNPgwDZzlxIwjb6s-102" style="edgeStyle=orthogonalEdgeStyle;rounded=0;orthogonalLoop=1;jettySize=auto;html=1;exitX=0.443;exitY=1;exitDx=0;exitDy=0;entryX=1;entryY=0.5;entryDx=0;entryDy=0;startArrow=classic;startFill=1;exitPerimeter=0;" edge="1" parent="1" source="RnhcBNPgwDZzlxIwjb6s-77" target="RnhcBNPgwDZzlxIwjb6s-86">
          <mxGeometry relative="1" as="geometry" />
        </mxCell>
        <mxCell id="RnhcBNPgwDZzlxIwjb6s-77" value="Login" style="ellipse;whiteSpace=wrap;html=1;" vertex="1" parent="1">
          <mxGeometry x="480" y="750" width="120" height="80" as="geometry" />
        </mxCell>
        <mxCell id="RnhcBNPgwDZzlxIwjb6s-108" style="edgeStyle=orthogonalEdgeStyle;rounded=0;orthogonalLoop=1;jettySize=auto;html=1;exitX=0.5;exitY=0;exitDx=0;exitDy=0;entryX=0.473;entryY=-0.007;entryDx=0;entryDy=0;entryPerimeter=0;" edge="1" parent="1" source="RnhcBNPgwDZzlxIwjb6s-81" target="RnhcBNPgwDZzlxIwjb6s-72">
          <mxGeometry relative="1" as="geometry">
            <mxPoint x="230" y="560" as="targetPoint" />
            <Array as="points">
              <mxPoint x="740" y="590" />
              <mxPoint x="177" y="590" />
              <mxPoint x="177" y="629" />
            </Array>
          </mxGeometry>
        </mxCell>
        <mxCell id="RnhcBNPgwDZzlxIwjb6s-81" value="Create Account" style="ellipse;whiteSpace=wrap;html=1;" vertex="1" parent="1">
          <mxGeometry x="680" y="750" width="120" height="80" as="geometry" />
        </mxCell>
        <mxCell id="RnhcBNPgwDZzlxIwjb6s-83" style="edgeStyle=entityRelationEdgeStyle;rounded=0;orthogonalLoop=1;jettySize=auto;html=1;exitX=0;exitY=0.5;exitDx=0;exitDy=0;entryX=1;entryY=0.5;entryDx=0;entryDy=0;startArrow=classic;startFill=1;" edge="1" parent="1" source="RnhcBNPgwDZzlxIwjb6s-86" target="RnhcBNPgwDZzlxIwjb6s-91">
          <mxGeometry relative="1" as="geometry" />
        </mxCell>
        <mxCell id="RnhcBNPgwDZzlxIwjb6s-84" style="rounded=0;orthogonalLoop=1;jettySize=auto;html=1;exitX=0.5;exitY=0;exitDx=0;exitDy=0;entryX=0.5;entryY=1;entryDx=0;entryDy=0;startArrow=classic;startFill=1;" edge="1" parent="1" source="RnhcBNPgwDZzlxIwjb6s-86" target="RnhcBNPgwDZzlxIwjb6s-95">
          <mxGeometry relative="1" as="geometry" />
        </mxCell>
        <mxCell id="RnhcBNPgwDZzlxIwjb6s-86" value="Job Search" style="ellipse;whiteSpace=wrap;html=1;" vertex="1" parent="1">
          <mxGeometry x="350" y="850" width="120" height="80" as="geometry" />
        </mxCell>
        <mxCell id="RnhcBNPgwDZzlxIwjb6s-87" style="rounded=0;orthogonalLoop=1;jettySize=auto;html=1;exitX=1;exitY=0;exitDx=0;exitDy=0;entryX=0;entryY=1;entryDx=0;entryDy=0;startArrow=classic;startFill=1;" edge="1" parent="1" source="RnhcBNPgwDZzlxIwjb6s-91" target="RnhcBNPgwDZzlxIwjb6s-95">
          <mxGeometry relative="1" as="geometry" />
        </mxCell>
        <mxCell id="RnhcBNPgwDZzlxIwjb6s-107" style="edgeStyle=orthogonalEdgeStyle;rounded=0;orthogonalLoop=1;jettySize=auto;html=1;exitX=0.5;exitY=1;exitDx=0;exitDy=0;entryX=0.568;entryY=0.997;entryDx=0;entryDy=0;startArrow=classic;startFill=1;entryPerimeter=0;" edge="1" parent="1" source="RnhcBNPgwDZzlxIwjb6s-91" target="RnhcBNPgwDZzlxIwjb6s-77">
          <mxGeometry relative="1" as="geometry" />
        </mxCell>
        <mxCell id="RnhcBNPgwDZzlxIwjb6s-91" value="Skill Search" style="ellipse;whiteSpace=wrap;html=1;" vertex="1" parent="1">
          <mxGeometry x="120" y="850" width="120" height="80" as="geometry" />
        </mxCell>
        <mxCell id="RnhcBNPgwDZzlxIwjb6s-95" value="Profile" style="ellipse;whiteSpace=wrap;html=1;" vertex="1" parent="1">
          <mxGeometry x="350" y="630" width="120" height="80" as="geometry" />
        </mxCell>
      </root>
    </mxGraphModel>
  </diagram>
</mxfile>
